<?xml version="1.0" standalone="no"?>
<!DOCTYPE svg PUBLIC "-//W3C//DTD SVG 20010904//EN"
 "http://www.w3.org/TR/2001/REC-SVG-20010904/DTD/svg10.dtd">
<svg version="1.0" xmlns="http://www.w3.org/2000/svg"
 width="260.000000pt" height="260.000000pt" viewBox="0 0 260.000000 260.000000"
 preserveAspectRatio="xMidYMid meet">
<metadata>
Created by potrace 1.11, written by Peter Selinger 2001-2013
</metadata>
<g transform="translate(0.000000,260.000000) scale(0.100000,-0.100000)"
fill="#000000" stroke="none">
<path d="M702 2379 c-13 -5 -70 -9 -125 -10 -56 0 -119 -5 -139 -10 -32 -8
-39 -15 -48 -48 -6 -23 -10 -196 -11 -437 0 -237 -4 -405 -10 -416 -6 -12 -6
-18 1 -18 5 0 10 -15 10 -34 0 -24 -5 -36 -17 -39 -17 -4 -17 -5 0 -6 14 -1
17 -11 17 -56 0 -37 -4 -55 -12 -55 -10 0 -10 -2 -1 -8 15 -10 17 -192 2 -192
-8 0 -8 -4 0 -14 12 -15 14 -219 2 -212 -4 3 -13 1 -21 -5 -12 -7 -10 -9 8 -9
23 0 31 -25 10 -33 -10 -4 -10 -6 0 -6 18 -1 14 -29 -5 -34 -17 -4 -17 -5 0
-6 19 -1 24 -21 5 -21 -8 0 -9 -3 -3 -8 6 -4 12 -19 13 -34 3 -27 -8 -35 -41
-29 -5 1 -6 -3 -2 -9 3 -5 15 -10 26 -10 22 0 27 -38 7 -58 -9 -9 -9 -12 0
-12 15 0 13 -72 -2 -82 -8 -6 -8 -10 0 -15 14 -10 15 -93 1 -93 -7 0 -7 -4 1
-12 20 -20 15 -58 -7 -58 -11 0 -23 -5 -27 -12 -4 -6 -3 -8 4 -5 5 4 17 4 26
1 18 -7 19 -60 2 -83 -8 -11 -8 -13 2 -7 8 5 12 0 12 -13 0 -13 -7 -21 -17
-22 -16 0 -16 -1 1 -8 14 -5 16 -10 7 -15 -8 -5 -9 -12 -2 -19 5 -7 8 -33 6
-59 -3 -45 -2 -48 21 -48 l24 0 0 1154 c0 926 3 1156 13 1164 7 6 63 11 132
11 66 1 135 5 153 10 19 6 44 6 64 1 17 -6 331 -10 699 -10 l669 -1 15 -22
c21 -31 20 -94 -2 -100 -17 -4 -17 -5 0 -6 16 -1 17 -60 17 -1101 0 -1093 0
-1100 20 -1100 19 0 20 7 20 104 0 74 4 106 13 109 9 4 9 6 0 6 -16 1 -18 124
-2 153 8 15 8 19 0 14 -7 -5 -11 10 -11 48 0 30 4 58 10 61 6 4 5 13 -2 25 -9
14 -9 22 1 34 8 10 9 16 3 16 -12 0 -9 47 4 59 5 5 18 11 29 14 15 4 14 5 -7
6 -28 1 -51 21 -24 21 8 0 18 5 21 11 4 6 0 9 -10 7 -15 -2 -18 6 -21 54 -2
32 1 60 7 63 5 4 9 11 9 16 0 6 -4 8 -8 5 -5 -3 -9 30 -9 72 0 59 3 80 16 89
15 11 14 12 -1 13 -13 0 -18 8 -18 31 0 19 7 37 18 45 16 13 16 13 0 14 -13 0
-17 7 -16 28 1 15 6 33 11 40 6 8 5 12 -2 12 -18 0 -10 103 9 112 12 5 12 7
-2 7 -21 1 -25 21 -4 21 8 0 16 6 19 14 4 10 0 14 -13 11 -15 -3 -18 2 -18 25
1 16 5 27 10 24 4 -3 8 0 8 5 0 6 -4 11 -9 11 -5 0 -9 15 -8 34 1 24 7 38 21
45 21 9 21 10 -1 10 -14 1 -23 7 -23 17 0 11 6 15 20 11 11 -3 20 -2 20 3 0 4
-9 10 -20 13 -17 4 -19 13 -18 91 1 68 5 86 17 89 13 4 13 5 -1 6 -16 1 -18
22 -17 271 0 274 -7 336 -38 361 -13 12 -139 15 -696 17 -404 2 -687 7 -698
13 -22 11 -56 11 -87 -2z"/>
<path d="M795 2270 c-3 -5 -1 -10 4 -10 6 0 11 5 11 10 0 6 -2 10 -4 10 -3 0
-8 -4 -11 -10z"/>
<path d="M574 2092 c-32 -21 -34 -52 -34 -565 0 -505 0 -515 21 -541 l20 -26
678 0 678 0 33 22 c18 13 43 36 54 51 21 28 21 39 24 527 2 490 2 500 -18 520
-20 20 -30 20 -732 20 -392 0 -718 -4 -724 -8z m573 -29 c2 -5 -10 -10 -27
-11 -27 -1 -38 7 -25 20 9 8 49 2 52 -9z m20 -5 c-3 -8 -6 -5 -6 6 -1 11 2 17
5 13 3 -3 4 -12 1 -19z m63 14 c0 9 3 9 10 -2 7 -11 10 -11 10 -2 0 17 63 11
66 -6 1 -7 0 -8 -3 -2 -3 7 -10 7 -21 -2 -12 -11 -16 -11 -20 0 -3 10 -7 10
-17 2 -18 -15 -57 -9 -63 8 -3 11 0 12 17 3 16 -9 21 -9 21 1z m160 -6 c0 -6
4 -5 9 3 6 9 14 11 26 4 12 -7 14 -13 6 -17 -6 -4 -11 -2 -11 4 0 6 -5 8 -12
3 -27 -16 -71 -9 -53 9 9 9 35 5 35 -6z m102 5 c8 12 9 12 6 0 -6 -22 -28 -25
-27 -4 0 12 2 14 6 4 5 -11 7 -11 15 0z m25 -13 c-3 -8 -6 -5 -6 6 -1 11 2 17
5 13 3 -3 4 -12 1 -19z m81 7 c1 -5 -14 -10 -33 -11 -19 0 -35 4 -35 10 0 14
64 15 68 1z m56 4 c-2 -4 8 -6 21 -6 14 0 25 2 25 6 0 11 54 5 58 -7 2 -7 -19
-10 -64 -9 -37 1 -69 7 -71 12 -2 6 5 11 16 11 11 0 18 -3 15 -7z"/>
<path d="M2328 1723 c7 -3 16 -2 19 1 4 3 -2 6 -13 5 -11 0 -14 -3 -6 -6z"/>
<path d="M2250 1656 c0 -2 7 -7 16 -10 8 -3 12 -2 9 4 -6 10 -25 14 -25 6z"/>
<path d="M2260 1610 c8 -5 20 -10 25 -10 6 0 3 5 -5 10 -8 5 -19 10 -25 10 -5
0 -3 -5 5 -10z"/>
<path d="M2303 1523 c9 -2 25 -2 35 0 9 3 1 5 -18 5 -19 0 -27 -2 -17 -5z"/>
<path d="M2260 1449 c0 -5 9 -9 20 -9 11 0 20 2 20 4 0 2 -9 6 -20 9 -11 3
-20 1 -20 -4z"/>
<path d="M2270 1350 c0 -13 11 -13 30 0 12 8 11 10 -7 10 -13 0 -23 -4 -23
-10z"/>
<path d="M2295 1080 c3 -5 8 -10 11 -10 2 0 4 5 4 10 0 6 -5 10 -11 10 -5 0
-7 -4 -4 -10z"/>
<path d="M1120 890 c-24 -24 -25 -34 -4 -54 20 -20 40 -20 48 0 9 23 8 24 -11
24 -14 0 -15 -2 -4 -9 10 -6 10 -10 1 -16 -16 -10 -42 18 -35 38 4 9 19 20 33
26 18 6 21 10 10 10 -10 1 -27 -8 -38 -19z"/>
<path d="M1196 898 c-3 -7 -7 -26 -10 -43 -4 -23 -3 -25 3 -10 5 11 12 29 15
39 5 14 10 16 18 8 8 -8 8 -15 -2 -27 -11 -13 -10 -14 4 -9 21 8 21 40 0 48
-22 8 -24 8 -28 -6z"/>
<path d="M1315 886 c-8 -13 -13 -30 -9 -39 8 -21 35 -30 48 -17 8 8 7 9 -5 5
-9 -3 -21 1 -28 9 -18 21 4 60 30 53 10 -3 19 -1 19 4 0 19 -40 8 -55 -15z"/>
<path d="M1473 903 c-17 -6 -16 -18 3 -37 18 -18 9 -40 -13 -32 -8 3 -11 1 -8
-4 9 -15 35 -12 42 5 3 9 -2 24 -12 34 -15 18 -15 20 2 30 18 11 8 14 -14 4z"/>
<path d="M1536 902 c-2 -4 -7 -24 -11 -45 -7 -34 -6 -37 16 -36 17 1 19 3 7 6
-10 2 -18 11 -18 19 0 8 8 14 18 15 10 0 12 3 5 6 -19 7 -16 31 5 36 15 4 15
5 0 6 -9 0 -19 -2 -22 -7z"/>
<path d="M1391 864 c-24 -41 -27 -58 -5 -29 13 17 17 18 36 6 18 -11 20 -11
14 4 -3 9 -6 25 -6 36 0 29 -16 23 -39 -17z m29 6 c0 -5 -5 -10 -11 -10 -5 0
-7 5 -4 10 3 6 8 10 11 10 2 0 4 -4 4 -10z"/>
<path d="M1256 865 c-3 -9 -6 -24 -5 -33 0 -9 5 -4 10 12 9 32 6 48 -5 21z"/>
<path d="M540 853 c0 -12 8 -18 23 -19 12 -1 38 -4 57 -8 26 -5 30 -4 15 3
l-20 10 20 1 20 1 -20 8 -20 8 20 5 c16 5 14 6 -7 7 -17 1 -28 -5 -31 -16 -4
-17 -5 -17 -6 0 -1 11 -9 17 -26 17 -17 0 -25 -5 -25 -17z m37 1 c-3 -3 -12
-4 -19 -1 -8 3 -5 6 6 6 11 1 17 -2 13 -5z"/>
<path d="M666 862 c6 -4 14 -14 17 -22 4 -12 6 -12 6 2 1 9 7 19 14 21 6 3 -1
6 -18 6 -16 0 -25 -3 -19 -7z"/>
<path d="M720 849 c0 -12 5 -16 15 -13 8 3 29 1 48 -5 27 -9 41 -8 68 3 19 9
27 16 19 16 -10 1 -8 4 5 9 12 5 -13 9 -67 8 -79 0 -88 -1 -88 -18z m108 -1
c-3 -7 -11 -13 -18 -13 -7 0 -15 6 -17 13 -3 7 4 12 17 12 13 0 20 -5 18 -12z"/>
<path d="M904 845 c1 -13 8 -20 24 -21 17 -1 18 -1 3 3 -11 2 -22 12 -24 21
-3 12 -4 11 -3 -3z"/>
<path d="M960 852 c0 -18 50 -25 50 -7 0 6 5 2 11 -7 12 -22 49 -24 49 -3 0 8
-5 15 -11 15 -5 0 -7 -4 -4 -10 3 -5 -1 -10 -9 -10 -25 0 -19 28 7 33 12 2 -4
4 -35 5 -48 0 -58 -2 -58 -16z m37 2 c-3 -3 -12 -4 -19 -1 -8 3 -5 6 6 6 11 1
17 -2 13 -5z"/>
<path d="M1773 795 c-90 -39 -90 -162 1 -200 87 -37 178 52 142 138 -15 36
-67 77 -96 77 -8 -1 -29 -7 -47 -15z m108 -31 c28 -25 34 -70 13 -102 -10 -16
-19 -22 -22 -14 -2 6 -10 12 -18 12 -9 0 -12 5 -9 10 6 9 -7 14 -27 11 -4 0
-4 7 -1 16 5 12 3 14 -8 8 -12 -8 -12 -6 0 8 12 15 12 17 -4 11 -13 -5 -16 -4
-11 4 4 7 2 12 -6 12 -10 0 -10 2 1 9 10 6 10 10 1 16 -9 6 -9 10 1 17 18 12
68 2 90 -18z"/>
<path d="M157 739 c7 -7 15 -10 18 -7 3 3 -2 9 -12 12 -14 6 -15 5 -6 -5z"/>
<path d="M2308 703 c7 -3 16 -2 19 1 4 3 -2 6 -13 5 -11 0 -14 -3 -6 -6z"/>
<path d="M317 673 c-4 -3 -7 -11 -7 -17 0 -6 5 -5 12 2 6 6 9 14 7 17 -3 3 -9
2 -12 -2z"/>
<path d="M1464 651 c-93 -57 -52 -201 58 -201 32 0 47 7 74 34 56 56 44 135
-26 171 -39 20 -69 19 -106 -4z m121 -26 c17 -16 25 -35 25 -58 0 -40 -26 -70
-36 -43 -3 9 -13 16 -21 16 -8 0 -11 5 -8 10 3 6 1 10 -6 10 -7 0 -9 3 -6 6 4
4 -3 15 -15 25 -12 11 -16 19 -8 19 9 0 10 3 1 13 -28 35 40 37 74 2z"/>
<path d="M1880 579 c0 -6 -7 -9 -15 -5 -17 6 -19 -2 -6 -22 7 -11 9 -10 15 3
3 9 10 13 16 10 6 -3 7 1 4 9 -7 19 -14 21 -14 5z"/>
<path d="M687 553 c-4 -3 -7 -35 -7 -69 l0 -63 -67 -3 -68 -3 0 -80 0 -80 68
-3 67 -3 0 -63 c0 -49 4 -65 16 -70 28 -11 130 -6 142 6 7 7 12 38 12 70 l0
58 59 0 c34 0 63 5 67 11 11 18 13 111 3 137 -7 19 -15 22 -69 22 -33 0 -60 3
-61 8 0 4 -3 30 -5 57 -7 76 -6 75 -82 75 -38 0 -72 -3 -75 -7z m68 -223 c3
-5 1 -10 -4 -10 -6 0 -11 5 -11 10 0 6 2 10 4 10 3 0 8 -4 11 -10z"/>
<path d="M1874 476 c-40 -40 -45 -83 -14 -133 55 -91 200 -49 200 59 0 48 -22
83 -62 97 -56 20 -87 14 -124 -23z m143 -8 c16 -15 23 -33 23 -57 0 -41 -14
-70 -24 -52 -4 6 -12 8 -18 5 -6 -4 -8 -2 -5 3 4 6 -2 13 -13 16 -11 3 -24 17
-30 31 -5 14 -15 26 -22 27 -10 0 -9 2 1 6 10 4 11 7 1 13 -20 13 -1 30 32 30
19 0 41 -9 55 -22z"/>
<path d="M1585 440 c-3 -5 -13 -6 -22 -3 -11 4 -14 3 -9 -5 10 -17 33 -15 40
3 6 17 0 20 -9 5z"/>
<path d="M1614 366 c-43 -19 -64 -53 -64 -102 0 -101 111 -143 187 -72 52 49
34 141 -32 172 -40 19 -51 19 -91 2z m114 -42 c35 -39 25 -115 -12 -85 -7 6
-16 9 -19 6 -4 -3 -5 -2 -2 1 2 4 -4 14 -15 23 -11 9 -20 23 -22 31 -2 8 -9
21 -17 29 -11 13 -11 16 5 22 27 11 56 1 82 -27z"/>
<path d="M2014 245 c-4 -9 -4 -19 0 -22 3 -4 6 1 6 10 0 10 5 17 11 17 5 0 7
-4 4 -10 -3 -5 -1 -10 5 -10 15 0 8 22 -8 28 -7 2 -15 -4 -18 -13z"/>
<path d="M1715 110 c-4 -7 -3 -16 3 -22 14 -14 45 -2 40 15 -6 16 -34 21 -43
7z m30 -10 c3 -5 2 -10 -4 -10 -5 0 -13 5 -16 10 -3 6 -2 10 4 10 5 0 13 -4
16 -10z"/>
<path d="M258 13 c7 -3 16 -2 19 1 4 3 -2 6 -13 5 -11 0 -14 -3 -6 -6z"/>
</g>
</svg>
