<?xml version="1.0" encoding="UTF-8" standalone="no"?>
<svg
   xmlns:dc="http://purl.org/dc/elements/1.1/"
   xmlns:cc="http://creativecommons.org/ns#"
   xmlns:rdf="http://www.w3.org/1999/02/22-rdf-syntax-ns#"
   xmlns:svg="http://www.w3.org/2000/svg"
   xmlns="http://www.w3.org/2000/svg"
   xmlns:sodipodi="http://sodipodi.sourceforge.net/DTD/sodipodi-0.dtd"
   xmlns:inkscape="http://www.inkscape.org/namespaces/inkscape"
   version="1.1"
   viewBox="0 0 71 71"
   enable-background="new 0 0 44 44"
   id="svg3735"
   sodipodi:docname="worldwide.svg"
   width="71"
   height="71"
   inkscape:export-filename="C:\Users\Sinis\Desktop\SR\Globe.png"
   inkscape:export-xdpi="96"
   inkscape:export-ydpi="96"
   inkscape:version="0.92.4 (5da689c313, 2019-01-14)">
  <metadata
     id="metadata3741">
    <rdf:RDF>
      <cc:Work
         rdf:about="">
        <dc:format>image/svg+xml</dc:format>
        <dc:type
           rdf:resource="http://purl.org/dc/dcmitype/StillImage" />
        <dc:title></dc:title>
      </cc:Work>
    </rdf:RDF>
  </metadata>
  <defs
     id="defs3739" />
  <sodipodi:namedview
     pagecolor="#ffffff"
     bordercolor="#666666"
     borderopacity="1"
     objecttolerance="10"
     gridtolerance="10"
     guidetolerance="10"
     inkscape:pageopacity="0"
     inkscape:pageshadow="2"
     inkscape:window-width="1920"
     inkscape:window-height="1017"
     id="namedview3737"
     showgrid="false"
     inkscape:pagecheckerboard="true"
     inkscape:zoom="9.6363636"
     inkscape:cx="16.719445"
     inkscape:cy="43.759106"
     inkscape:window-x="-8"
     inkscape:window-y="-8"
     inkscape:window-maximized="1"
     inkscape:current-layer="svg3735" />
  <g
     id="g3733"
     transform="translate(0,27)">
    <g
       id="g3731">
      <path
         d="M 70.798427,6.9504717 C 69.975283,-11.329443 55.331054,-25.972061 37.049528,-26.795205 v -0.08215 H 33.82783 v 0.08215 C 15.546304,-25.972061 0.90207547,-11.329443 0.0789316,6.9504717 H 0 V 10.17217 H 0.0789316 C 0.90207547,28.452085 15.546304,43.094703 33.82783,43.917847 V 44 h 3.221698 V 43.91785 C 55.331054,43.094703 69.975283,28.452085 70.798427,10.17217 h 0.07893 V 6.9504717 Z M 29.950517,-23.153075 c -4.764892,3.01712 -8.78235,7.339028 -11.72376,12.384207 H 9.7021439 C 14.528248,-17.183269 21.699748,-21.735528 29.950517,-23.153075 Z M 7.6015967,-7.5471698 h 8.9466553 c -2.100547,4.5119882 -3.382783,9.455684 -3.606691,14.4976415 H 3.2941863 C 3.5551439,1.6781627 5.1063915,-3.2429811 7.6015967,-7.5471698 Z M 3.2941863,10.17217 H 12.93995 c 0.225519,5.041957 1.507755,9.985653 3.606692,14.497641 H 7.6015967 C 5.1063915,20.365623 3.5551439,15.444479 3.2941863,10.17217 Z m 6.4079576,17.719339 h 8.5230021 c 2.941411,5.04518 6.958868,9.367088 11.72376,12.384208 C 21.699748,38.85817 14.528248,34.30591 9.7021439,27.891509 Z M 33.82783,38.824342 C 29.075825,36.429009 25.011653,32.55975 21.973592,27.891509 H 33.82783 Z m 0,-14.154531 H 20.101785 C 17.817601,20.20937 16.412941,15.227014 16.16487,10.17217 h 17.66296 z m 0,-17.7193393 H 16.16487 C 16.412941,1.8956274 17.817601,-3.0867288 20.101785,-7.5471698 H 33.82783 Z m 0,-17.7193397 H 21.973592 c 3.038061,-4.66824 7.102233,-8.5375 11.854238,-10.932832 z m 27.347385,0 H 52.68604 c -2.901139,-5.014573 -6.858995,-9.321983 -11.551398,-12.353601 8.163783,1.457818 15.25474,5.989136 20.040573,12.353601 z m -24.125687,-11.02304 c 4.772946,2.411441 8.848394,6.314528 11.892899,11.02304 H 37.049528 Z m 0,14.2447382 h 13.748597 c 2.269686,4.4636627 3.666292,9.444408 3.914363,14.4976415 h -17.66296 z m 0,17.7193398 h 17.66296 c -0.24646,5.053233 -1.644677,10.033979 -3.914363,14.497641 H 37.049528 Z m 0,17.719339 h 11.892899 c -3.044505,4.708512 -7.119953,8.611599 -11.892899,11.023041 z m 4.085114,12.353602 c 4.692403,-3.031618 8.650259,-7.339028 11.551398,-12.353602 h 8.489175 c -4.785833,6.364465 -11.87679,10.895783 -20.040573,12.353602 z m 22.144341,-15.5753 H 54.35488 c 2.086049,-4.51521 3.35862,-9.457294 3.582528,-14.497641 h 9.645764 c -0.260957,5.272309 -1.810594,10.193453 -4.304189,14.497641 z M 57.937408,6.9504717 C 57.7135,1.910125 56.440929,-3.0319599 54.35488,-7.5471698 h 8.924103 c 2.493595,4.3041887 4.043232,9.2253325 4.304189,14.4976415 z"
         id="path3729"
         style="fill:#ffffff;fill-opacity:1;stroke-width:1.61084902"
         inkscape:connector-curvature="0" />
    </g>
  </g>
</svg>
