<?xml version="1.0" encoding="UTF-8" standalone="no"?>
<!-- Created with Inkscape (http://www.inkscape.org/) -->

<svg
   xmlns:dc="http://purl.org/dc/elements/1.1/"
   xmlns:cc="http://creativecommons.org/ns#"
   xmlns:rdf="http://www.w3.org/1999/02/22-rdf-syntax-ns#"
   xmlns:svg="http://www.w3.org/2000/svg"
   xmlns="http://www.w3.org/2000/svg"
   xmlns:sodipodi="http://sodipodi.sourceforge.net/DTD/sodipodi-0.dtd"
   xmlns:inkscape="http://www.inkscape.org/namespaces/inkscape"
   version="1.1"
   id="svg815"
   xml:space="preserve"
   width="71"
   height="71"
   viewBox="0 0 71.000002 71.000002"
   sodipodi:docname="Reddit.svg"
   inkscape:version="0.92.4 (5da689c313, 2019-01-14)"
   inkscape:export-filename="C:\Users\Sinis\Desktop\Pictures\Instagram.png"
   inkscape:export-xdpi="96"
   inkscape:export-ydpi="96"><metadata
     id="metadata821"><rdf:RDF><cc:Work
         rdf:about=""><dc:format>image/svg+xml</dc:format><dc:type
           rdf:resource="http://purl.org/dc/dcmitype/StillImage" /><dc:title></dc:title></cc:Work></rdf:RDF></metadata><defs
     id="defs819"><clipPath
       id="clipPath870"
       clipPathUnits="userSpaceOnUse"><path
         inkscape:connector-curvature="0"
         id="path868"
         d="M 0,0.390625 H 260 V 260.39062 H 0 Z" /></clipPath></defs><sodipodi:namedview
     pagecolor="#ffffff"
     bordercolor="#666666"
     borderopacity="1"
     objecttolerance="10"
     gridtolerance="10"
     guidetolerance="10"
     inkscape:pageopacity="0"
     inkscape:pageshadow="2"
     inkscape:window-width="1920"
     inkscape:window-height="1017"
     id="namedview817"
     showgrid="false"
     inkscape:pagecheckerboard="true"
     inkscape:zoom="9.9375006"
     inkscape:cx="19.52435"
     inkscape:cy="35.929872"
     inkscape:window-x="-8"
     inkscape:window-y="-8"
     inkscape:window-maximized="1"
     inkscape:current-layer="g823" /><g
     id="g823"
     inkscape:groupmode="layer"
     inkscape:label="ink_ext_XXXXXX"
     transform="matrix(1.3333333,0,0,-1.3333333,0,71.000048)"><g
       transform="matrix(2.118251,0,0,2.118251,0.15969521,-2.0339306)"
       inkscape:label="ink_ext_XXXXXX"
       id="g860"><g
         transform="scale(0.1)"
         id="g862"><g
           id="g864"><g
             clip-path="url(#clipPath870)"
             id="g866"><path
               inkscape:connector-curvature="0"
               id="path872"
               style="fill:#ffffff;fill-opacity:1;fill-rule:nonzero;stroke:none"
               d="m 107.07,121.129 c 0,-8.277 -6.718,-15 -14.9997,-15 -8.2812,0 -15,6.723 -15,15 0,8.293 6.7188,15 15,15 8.2817,0 14.9997,-6.707 14.9997,-15 z" /><path
               inkscape:connector-curvature="0"
               id="path874"
               style="fill:#ffffff;fill-opacity:1;fill-rule:nonzero;stroke:none"
               d="M 0,10 H 250.391 V 260.391 H 0 Z m 221.41,95 c -3.519,-35 -45.039,-62.6914 -95.629,-62.6914 -50.2693,0 -91.5622,27.3398 -95.5505,61.9924 -9.6797,5.82 -16.2813,16.558 -16.2813,28.937 0,18.524 14.5703,33.602 32.5,33.602 6.5196,0 12.5313,-1.988 17.6524,-5.391 -0.3125,-0.199 -0.5821,-0.469 -0.8633,-0.668 15.1211,9.18 34.3828,15.078 55.5117,16.168 l 16.91,48.563 36.289,-8.672 c 4.422,7.219 12.391,12.109 21.492,12.109 13.981,0 25.348,-11.371 25.348,-25.347 0,-13.993 -11.367,-25.364 -25.348,-25.364 -13.992,0 -25.351,11.371 -25.351,25.364 0,0.847 0.148,1.668 0.23,2.5 l -25.351,6.089 -12.231,-35.16 c 21.211,-0.781 40.672,-6.332 56.102,-15.312 5,3.203 10.82,5.121 17.109,5.121 17.93,0 32.5,-15.078 32.5,-33.602 0,-11.867 -6.019,-22.297 -15.039,-28.238 z" /><path
               inkscape:connector-curvature="0"
               id="path876"
               style="fill:#ffffff;fill-opacity:1;fill-rule:nonzero;stroke:none"
               d="m 171.52,121.102 c 0,-8.293 -6.719,-14.973 -15,-14.973 -8.282,0 -14.961,6.68 -14.961,14.973 0,8.277 6.679,15 14.961,15 8.281,0 15,-6.723 15,-15 z" /><path
               inkscape:connector-curvature="0"
               id="path878"
               style="fill:#ffffff;fill-opacity:1;fill-rule:nonzero;stroke:none"
               d="M 154.141,87.7695 C 122.379,66.8398 96.7617,86.6016 95.5898,87.4609 c -2.4296,1.961 -5.9414,1.5586 -7.8906,-0.8203 -1.9609,-2.4609 -1.5703,-6.0117 0.8516,-7.9687 0.1992,-0.1524 14.8472,-11.6836 36.0972,-11.6836 10.551,0 22.813,2.8633 35.704,11.3711 2.617,1.7187 3.32,5.2422 1.597,7.8125 -1.719,2.6172 -5.23,3.3164 -7.808,1.5976 z" /></g></g></g></g></g></svg>