<?xml version="1.0" encoding="UTF-8" standalone="no"?>
<!-- Generator: Adobe Illustrator 20.0.0, SVG Export Plug-In . SVG Version: 6.00 Build 0)  -->

<svg
   xmlns:dc="http://purl.org/dc/elements/1.1/"
   xmlns:cc="http://creativecommons.org/ns#"
   xmlns:rdf="http://www.w3.org/1999/02/22-rdf-syntax-ns#"
   xmlns:svg="http://www.w3.org/2000/svg"
   xmlns="http://www.w3.org/2000/svg"
   xmlns:sodipodi="http://sodipodi.sourceforge.net/DTD/sodipodi-0.dtd"
   xmlns:inkscape="http://www.inkscape.org/namespaces/inkscape"
   version="1.1"
   id="White"
   x="0px"
   y="0px"
   viewBox="0 0 71 71"
   xml:space="preserve"
   sodipodi:docname="Twitter_Social_Icon_Square_White.svg"
   width="71"
   height="71"
   inkscape:export-filename="C:\Users\Sinis\Desktop\Pictures\Twitter.png"
   inkscape:export-xdpi="96"
   inkscape:export-ydpi="96"
   inkscape:version="0.92.4 (5da689c313, 2019-01-14)"><metadata
   id="metadata4634"><rdf:RDF><cc:Work
       rdf:about=""><dc:format>image/svg+xml</dc:format><dc:type
         rdf:resource="http://purl.org/dc/dcmitype/StillImage" /><dc:title></dc:title></cc:Work></rdf:RDF></metadata><defs
   id="defs4632" /><sodipodi:namedview
   pagecolor="#ffffff"
   bordercolor="#666666"
   borderopacity="1"
   objecttolerance="10"
   gridtolerance="10"
   guidetolerance="10"
   inkscape:pageopacity="0"
   inkscape:pageshadow="2"
   inkscape:window-width="1920"
   inkscape:window-height="1017"
   id="namedview4630"
   showgrid="false"
   inkscape:pagecheckerboard="true"
   inkscape:zoom="9.44"
   inkscape:cx="24.309054"
   inkscape:cy="33.697822"
   inkscape:window-x="-8"
   inkscape:window-y="-8"
   inkscape:window-maximized="1"
   inkscape:current-layer="White" />
<style
   type="text/css"
   id="style4625">
	.st0{fill:#FFFFFF;}
</style>
<path
   class="st0"
   d="M 71.18644,71.211864 H 0 V 0.02542369 H 71.18644 Z M 27.335593,53.7 c 16.782203,0 25.965254,-13.916949 25.965254,-25.965255 0,-0.391525 0,-0.783049 -0.01779,-1.174576 1.77966,-1.281356 3.327964,-2.900847 4.555931,-4.733898 -1.637288,0.729661 -3.399152,1.210169 -5.25,1.441526 1.886441,-1.121187 3.327965,-2.918645 4.022033,-5.054238 -1.761863,1.05 -3.719491,1.797458 -5.801694,2.20678 -1.672882,-1.779661 -4.03983,-2.88305 -6.655933,-2.88305 -5.036441,0 -9.129661,4.09322 -9.129661,9.12966 0,0.711864 0.08899,1.405933 0.231357,2.082203 -7.581357,-0.373728 -14.308474,-4.022033 -18.811017,-9.538983 -0.783052,1.352543 -1.227967,2.918644 -1.227967,4.591527 0,3.167796 1.619492,5.961863 4.057627,7.599151 -1.494914,-0.05339 -2.900846,-0.462711 -4.128812,-1.138983 0,0.0356 0,0.07119 0,0.124576 0,4.41356 3.15,8.115256 7.314407,8.951696 -0.765254,0.21356 -1.566102,0.32034 -2.402542,0.32034 -0.587288,0 -1.15678,-0.05339 -1.708475,-0.160171 1.15678,3.630508 4.538135,6.264407 8.524576,6.335593 -3.132203,2.455933 -7.065254,3.915254 -11.336441,3.915254 -0.72966,0 -1.459321,-0.0356 -2.171185,-0.124575 C 17.387292,52.187289 22.192377,53.7 27.335597,53.7"
   id="path4627"
   inkscape:connector-curvature="0"
   style="fill:#ffffff;stroke-width:0.1779661" />
</svg>